<?xml version="1.0" standalone="no"?><!DOCTYPE svg PUBLIC "-//W3C//DTD SVG 1.1//EN" "http://www.w3.org/Graphics/SVG/1.1/DTD/svg11.dtd"><svg t="1567502538590" class="icon" viewBox="0 0 1024 1024" version="1.1" xmlns="http://www.w3.org/2000/svg" p-id="3713" width="128" height="128" xmlns:xlink="http://www.w3.org/1999/xlink"><defs><style type="text/css"></style></defs><path d="M512 62c248.528 0 450 201.472 450 450S760.528 962 512 962 62 760.528 62 512 263.472 62 512 62zM281.856 712.71h464.776v-64.6h-175.294v-91.66h127.212v-64.6h-127.212v-95.66h-73.122v251.92h-72.12v-192.32h-73.122v192.32h-71.118v64.6z m201.836-470.786q-71.622 104.178-218.866 170.786 28.044 42.07 42.072 65.6 140.232-76.11 209.348-166.77 73.622 90.15 206.354 158.26 17.028-29.046 40.568-67.612-131.222-49.076-205.842-141.236l16.526-19.032h-90.16z" p-id="3714" fill="#1296db"></path></svg>