<?xml version="1.0" standalone="no"?><!DOCTYPE svg PUBLIC "-//W3C//DTD SVG 1.1//EN" "http://www.w3.org/Graphics/SVG/1.1/DTD/svg11.dtd"><svg t="1569375164146" class="icon" viewBox="0 0 1024 1024" version="1.1" xmlns="http://www.w3.org/2000/svg" p-id="3251" xmlns:xlink="http://www.w3.org/1999/xlink" width="128" height="128"><defs><style type="text/css"></style></defs><path d="M100.288 0h823.424A100.288 100.288 0 0 1 1024 100.288v823.424c0 55.36-44.928 100.288-100.288 100.288H100.288A100.288 100.288 0 0 1 0 923.712V100.288C0 44.928 44.928 0 100.288 0z m587.136 896c115.2 0 208.576-92.032 208.576-205.696 0-113.6-93.376-205.824-208.576-205.824-38.656 0-74.752 10.24-105.728 28.352L439.232 372.288l37.184-36.672a51.072 51.072 0 0 0 0-72.96 53.12 53.12 0 0 0-36.864-15.104 51.84 51.84 0 0 0-36.928 15.168l-37.376 36.864-47.488-46.848 37.248-36.672a51.072 51.072 0 0 0 0-72.96A51.84 51.84 0 0 0 318.08 128a51.84 51.84 0 0 0-36.864 15.104L207.36 216.064a51.072 51.072 0 0 0-4.544 67.712 50.688 50.688 0 0 0 5.504 6.4l299.52 295.552a203.008 203.008 0 0 0-28.928 104.448c0 113.6 93.376 205.824 208.64 205.824zM768 672a96.064 96.064 0 0 1-192 0 96.064 96.064 0 0 1 192 0z" p-id="3252"></path></svg>