<?xml version="1.0" standalone="no"?><!DOCTYPE svg PUBLIC "-//W3C//DTD SVG 1.1//EN" "http://www.w3.org/Graphics/SVG/1.1/DTD/svg11.dtd"><svg t="1569375037852" class="icon" viewBox="0 0 1024 1024" version="1.1" xmlns="http://www.w3.org/2000/svg" p-id="2495" xmlns:xlink="http://www.w3.org/1999/xlink" width="128" height="128"><defs><style type="text/css"></style></defs><path d="M515.235417 1023.063001c-2.354998-0.072-4.710996-0.215-7.030994-0.644C216.424651 969.597043-51.29814 685.205265 8.413813 168.817668c2.247998-20.701984 20.236984-35.976972 40.973968-34.834973C234.056637 143.404688 494.141434 7.347794 496.818432 5.919795c19.022985-8.780993 41.617967-1.141999 51.43096 17.416987 9.779992 18.559986 3.283997 41.545968-14.702989 52.252959-10.778992 5.639996-250.592804 130.916898-450.572648 137.341893-41.687967 473.27063 207.939838 690.276461 439.149657 732.108428 20.022984 3.567997 33.978973 21.912983 32.194975 42.113967-1.784999 20.275984-18.773985 35.836972-39.08297 35.908972z" fill="#999999" p-id="2496"></path><path d="M515.129418 1023.133001c-20.344984 0-37.333971-15.560988-39.15497-35.832972-1.819999-20.272984 12.135991-38.54797 32.157975-42.187967 181.741858-32.906974 330.934741-164.966871 398.747689-353.275724 7.425994-20.485984 29.980977-31.052976 50.39796-23.697982 20.485984 7.423994 31.121976 29.978977 23.697982 50.395961-77.665939 215.004832-249.127805 366.053714-458.745642 404.027684-2.354998 0.357-4.709996 0.571-7.100994 0.571zM962.988068 212.360634c-202.942841 0-455.176644-131.772897-466.169636-137.626892-12.99099-6.137995-21.521983-18.986985-22.235983-33.406974-0.749999-14.418989 6.459995-27.981978 18.737986-35.547973a39.471969 39.471969 0 0 1 40.152968-0.570999c2.678998 1.427999 263.760794 137.840892 447.502651 128.0619 20.914984-1.427999 40.187969 15.774988 41.115967 37.404971a38.76997 38.76997 0 0 1-10.136992 28.338978c-6.994995 7.781994-16.772987 12.34999-27.196978 12.848989-7.065994 0.356-14.345989 0.498-21.769983 0.498z m-447.85865 51.32596c46.111964 0 83.445935 35.262972 83.445934 78.664939 0 43.400966-37.333971 78.662939-83.445934 78.662938-46.078964 0-83.446935-35.261972-83.446935-78.662938 0-43.402966 37.367971-78.664939 83.446935-78.664939z m0-78.593939c-86.660932 0-157.292877 70.526945-157.292878 157.257878 0 86.729932 70.561945 157.257877 157.292878 157.257877 86.657932 0 157.327877-70.527945 157.327877-157.257877 0-86.730932-70.526945-157.257877-157.327877-157.257878z" fill="#999999" p-id="2497"></path><path d="M515.129418 435.71946c-24.520981 0-44.436965 17.632986-44.436966 39.333969v350.205726c0 21.700983 19.915984 39.331969 44.436966 39.33197 24.556981 0 44.398965-17.630986 44.398965-39.33197V475.053429c0-21.700983-19.841984-39.333969-44.398965-39.333969z" fill="#999999" p-id="2498"></path></svg>