<?xml version="1.0" standalone="no"?><!DOCTYPE svg PUBLIC "-//W3C//DTD SVG 1.1//EN" "http://www.w3.org/Graphics/SVG/1.1/DTD/svg11.dtd"><svg t="1567511362870" class="icon" viewBox="0 0 1024 1024" version="1.1" xmlns="http://www.w3.org/2000/svg" p-id="8884" xmlns:xlink="http://www.w3.org/1999/xlink" width="128" height="128"><defs><style type="text/css"></style></defs><path d="M156.444444 99.555556h711.111112a56.888889 56.888889 0 0 1 56.888888 56.888888v711.111112a56.888889 56.888889 0 0 1-56.888888 56.888888h-711.111112a56.888889 56.888889 0 0 1-56.888888-56.888888v-711.111112a56.888889 56.888889 0 0 1 56.888888-56.888888z m0 56.888888v711.111112h711.111112v-711.111112h-711.111112zM739.555556 483.555556a28.444444 28.444444 0 0 1 0 56.888888H284.444444a28.444444 28.444444 0 0 1 0-56.888888h455.111112z" p-id="8885" fill="#ffffff"></path></svg>